<?xml version="1.0" standalone="no"?> <!DOCTYPE svg PUBLIC "-//W3C//DTD SVG 1.0//EN" "http://www.w3.org/TR/2001/REC-SVG-20010904/DTD/svg10.dtd" > <svg xmlns="http://www.w3.org/2000/svg" width="100%" height="100%">
<defs >
<font id="myriadprolightsemicn" horiz-adv-x="746" ><font-face
    font-family="Myriad Pro Light SemiCond"
    units-per-em="2048"
    panose-1="2 11 4 3 3 4 3 2 2 4"
    ascent="1536"
    descent="-512"
    alphabetic="0" />
<missing-glyph horiz-adv-x="1024" d="M0 0V1434H1024V0H0ZM512 809L860 1331H164L512 809ZM573 717L922 195V1239L573 717ZM164 102H860L512 625L164 102ZM102 1239V195L451 717L102 1239Z" />
<glyph unicode=" " glyph-name="space" horiz-adv-x="409" />
<glyph unicode="!" glyph-name="exclam" horiz-adv-x="409" d="M244 356H164L147 1380H260L244 356ZM205 -20H203Q170 -20 149 4T127 66Q127 104 149 129T205 154Q241 154 262 130T283 66Q283 29 262 5T205 -20Z" />
<glyph unicode="&quot;" glyph-name="quotedbl" horiz-adv-x="612" d="M123 1411H238L213 961H147L123 1411ZM377 1411H492L467 961H401L377 1411Z" />
<glyph unicode="#" glyph-name="numbersign" horiz-adv-x="886" d="M319 500H528L571 844H360L319 500ZM256 0H172L225 420H70V500H236L281 844H115V922H291L344 1331H424L371 922H582L635 1331H717L664 922H819V844H653L610 500H778V422H600L547 0H465L518 422H309L256
0Z" />
<glyph unicode="$" glyph-name="dollar" horiz-adv-x="919" d="M487 -172H406V37Q329 37 256 61T133 125L174 199Q220 162 286 139T420 115Q534 115 604 185T674 362Q674 460 619 528T451 651Q380 684 331 715T238 786T172 878T150 991Q150 1113 225 1197T416
1298V1505H498V1303Q633 1299 727 1233L686 1159Q588 1225 467 1225Q358 1225 300 1160T242 1010Q242 914 296 858T485 737Q626 669 696 584T766 373Q766 246 691 154T487 41V-172Z" />
<glyph unicode="%" glyph-name="percent" horiz-adv-x="1447" d="M344 1352H346Q463 1352 536 1251T610 952Q610 752 532 648T336 543Q284 543 238 567T154 637T94 762T70 940Q70 1043 93 1124T156 1253T243 1327T344 1352ZM340 1282H338Q279 1282 237 1232T175
1107T156 946Q154 859 173 785T235 661T340 612Q389 612 425 640T483 717T514 824T524 948Q524 1036 508 1107T449 1230T340 1282ZM379 -29H299L1065 1358H1145L379 -29ZM1112 797H1114Q1231 797 1304 696T1378 399Q1378 199 1300 94T1104 -12Q1052 -12 1006 12T922
83T862 208T838 387Q838 586 918 691T1112 797ZM1108 727H1106Q1047 727 1005 677T943 553T924 393Q922 307 942 232T1005 107T1108 57Q1157 57 1193 85T1251 163T1282 271T1292 395Q1292 483 1276 554T1217 676T1108 727Z" />
<glyph unicode="&amp;" glyph-name="ampersand" horiz-adv-x="1089" d="M1075 0H956Q939 20 920 42T871 96T817 156Q652 -20 434 -20Q325 -20 241 33T112 172T68 362Q68 606 319 770V776Q205 943 205 1081Q205 1164 238 1235T339 1354T498 1401Q601 1401 672 1328T743
1128Q743 1018 674 930T446 756V750L819 289Q908 443 946 733H1038Q990 393 870 229Q948 150 1075 0ZM453 59H455Q549 59 628 101T766 217L362 709Q162 569 162 373Q162 239 242 149T453 59ZM481 1323H479Q393 1323 345 1257T297 1092Q297 1013 324 948T401 811Q526
884 589 955T653 1122Q653 1204 610 1263T481 1323Z" />
<glyph unicode="&apos;" glyph-name="quotesingle" horiz-adv-x="358" d="M123 1411H238L213 961H147L123 1411Z" />
<glyph unicode="(" glyph-name="parenleft" horiz-adv-x="532" d="M412 1423H500Q236 1080 236 582Q236 111 500 -250H412Q143 99 143 584Q143 1070 412 1423Z" />
<glyph unicode=")" glyph-name="parenright" horiz-adv-x="532" d="M123 -250H35Q299 106 299 588Q299 1066 35 1423H123Q391 1079 391 588Q391 102 123 -250Z" />
<glyph unicode="*" glyph-name="asterisk" horiz-adv-x="784" d="M520 1401L606 1354L432 1104V1100L723 1124V1030L434 1055V1049L608 809L520 758L391 1022H387L250 754L172 805L344 1051V1057L61 1030V1124L342 1102V1106L174 1350L256 1397L389 1137H393L520 1401Z" />
<glyph unicode="+" glyph-name="plus" horiz-adv-x="1220" d="M567 1090H653V588H1139V508H653V0H567V508H82V588H567V1090Z" />
<glyph unicode="," glyph-name="comma" horiz-adv-x="354" d="M125 -248L49 -258Q74 -193 108 -56T156 176L283 197Q257 89 205 -55T125 -248Z" />
<glyph unicode="-" glyph-name="hyphen" horiz-adv-x="606" d="M61 592H545V508H61V592Z" />
<glyph unicode="." glyph-name="period" horiz-adv-x="354" d="M188 -20H186Q152 -20 131 5T109 68Q109 107 131 132T188 158Q225 158 246 133T268 68Q268 30 247 5T188 -20Z" />
<glyph unicode="/" glyph-name="slash" horiz-adv-x="675" d="M92 -82H0L582 1401H676L92 -82Z" />
<glyph unicode="0" glyph-name="zero" horiz-adv-x="919" d="M446 -20H444Q370 -20 306 20T189 139T105 353T72 662Q72 838 104 973T194 1190T322 1311T475 1352Q641 1352 744 1183T848 678Q848 329 741 155T446 -20ZM457 59H459Q532 59 588 105T680 233T732 426T750
672Q750 849 721 980T625 1192T459 1272Q327 1272 249 1104T170 672Q167 399 244 229T457 59Z" />
<glyph unicode="1" glyph-name="one" horiz-adv-x="919" d="M457 0V1231H453L236 1102L211 1176L467 1331H549V0H457Z" />
<glyph unicode="2" glyph-name="two" horiz-adv-x="919" d="M817 0H88V59L203 190Q330 323 409 415T556 607T655 796T686 975Q686 1106 624 1187T424 1268Q290 1268 170 1163L131 1231Q265 1352 442 1352Q513 1352 571 1331T668 1275T733 1192T770 1094T782 989Q782
895 751 802T653 608T510 416T315 197L221 86V82H817V0Z" />
<glyph unicode="3" glyph-name="three" horiz-adv-x="919" d="M82 61L119 137Q161 108 230 85T377 61Q444 61 498 79T587 128T645 200T677 283T686 371Q685 448 656 508T578 607T465 664T330 684H258V762H330Q381 762 434 779T533 827T609 912T639 1032Q639 1139
580 1204T403 1270Q278 1270 172 1184L135 1255Q183 1295 259 1323T416 1352Q523 1352 597 1308T704 1196T737 1047Q737 943 677 859T502 729V725Q623 700 703 609T784 373Q784 294 758 224T681 99T549 12T367 -20Q284 -20 205 4T82 61Z" />
<glyph unicode="4" glyph-name="four" horiz-adv-x="919" d="M694 0H602V393H27V457L610 1331H694V473H883V393H694V0ZM139 473H602V983Q602 1102 610 1198H602Q579 1152 494 997L139 477V473Z" />
<glyph unicode="5" glyph-name="five" horiz-adv-x="919" d="M774 1331V1247H317L250 819Q302 827 352 827Q493 827 602 758Q679 710 728 625T778 424Q778 228 657 104T356 -20Q272 -20 197 2T76 57L113 133Q156 105 222 83T360 61Q497 61 591 157T684 410Q684
565 592 655T322 745Q234 745 156 733L244 1331H774Z" />
<glyph unicode="6" glyph-name="six" horiz-adv-x="919" d="M741 1352L743 1264Q675 1264 616 1251Q516 1229 435 1173T299 1039T213 872T170 686H174Q222 762 303 810T487 858Q652 858 751 742T850 436Q850 314 807 212T677 45T471 -20Q293 -20 183 129T72 532Q72
719 124 871T268 1130Q335 1209 427 1262T625 1337Q677 1347 741 1352ZM475 61H477Q596 61 674 157T752 426Q752 598 673 687T463 776Q379 776 303 727T184 590Q166 543 166 518Q166 302 248 182T475 61Z" />
<glyph unicode="7" glyph-name="seven" horiz-adv-x="919" d="M113 1331H831V1268L283 0H188L733 1245V1249H113V1331Z" />
<glyph unicode="8" glyph-name="eight" horiz-adv-x="919" d="M473 1352H475Q578 1352 653 1306T764 1190T799 1038Q799 942 747 859T580 715V709Q707 648 774 557T842 350Q842 192 731 86T459 -20Q289 -20 184 81T78 326Q78 573 342 707V713Q237 764 183 845T129
1018Q129 1165 228 1258T473 1352ZM457 59H459Q587 59 666 133T745 336Q745 403 725 456T662 549T568 618T440 674Q314 628 245 541T176 346Q171 222 248 141T457 59ZM467 1274H465Q354 1274 289 1205T223 1032Q222 919 290 852T483 743Q702 841 702 1028Q702 1133
643 1203T467 1274Z" />
<glyph unicode="9" glyph-name="nine" horiz-adv-x="919" d="M182 -20V66Q228 62 311 78Q469 106 575 223Q720 383 754 651L750 649Q626 492 436 492Q275 492 182 606T88 891Q88 1015 135 1120T273 1288T477 1352Q646 1352 748 1204T850 805Q850 417 645 184Q583
112 501 63T338 -4Q253 -20 182 -20ZM463 1270H461Q341 1270 262 1170T182 897Q182 744 258 659T457 573Q548 573 623 618T739 739Q756 771 756 795Q756 1021 680 1145T463 1270Z" />
<glyph unicode=":" glyph-name="colon" horiz-adv-x="354" d="M188 752H186Q153 752 131 777T109 840Q109 879 131 904T188 930Q225 930 246 905T268 840Q268 802 247 777T188 752ZM188 -20H186Q152 -20 131 5T109 68Q109 107 131 132T188 158Q225 158 246 133T268
68Q268 30 247 5T188 -20Z" />
<glyph unicode=";" glyph-name="semicolon" horiz-adv-x="354" d="M125 -248L49 -258Q74 -193 108 -56T156 176L283 197Q257 89 205 -55T125 -248ZM209 752H207Q174 752 152 777T129 840Q129 879 151 904T209 930Q245 930 267 905T289 840Q289 802 267 777T209 752Z" />
<glyph unicode="&lt;" glyph-name="less" horiz-adv-x="1220" d="M145 508V582L1075 1090V995L240 547V543L1075 94V0L145 508Z" />
<glyph unicode="=" glyph-name="equal" horiz-adv-x="1220" d="M1139 709H82V788H1139V709ZM1139 319H82V399H1139V319Z" />
<glyph unicode="&gt;" glyph-name="greater" horiz-adv-x="1220" d="M1075 582V508L145 0V94L981 543V547L145 995V1090L1075 582Z" />
<glyph unicode="?" glyph-name="question" horiz-adv-x="727" d="M365 352H276L270 397Q240 591 383 784Q466 893 501 964T537 1116Q537 1214 482 1266T328 1319Q210 1319 139 1262L106 1333Q146 1365 214 1385T346 1405Q488 1405 563 1323T639 1122Q639 1030
597 949T467 754Q400 661 376 581T360 406L365 352ZM315 -20H313Q279 -20 258 5T236 68Q236 107 258 132T315 158Q352 158 373 133T395 68Q395 30 374 5T315 -20Z" />
<glyph unicode="@" glyph-name="at" horiz-adv-x="1378" d="M860 512L918 786Q875 803 811 803Q712 803 628 741T496 579T449 371Q449 295 484 251T584 207Q646 207 707 256T807 375T860 512ZM954 -63L983 -129Q841 -213 645 -213Q526 -213 423 -171T243 -52T121
143T76 406Q76 570 128 718T271 976T495 1152T784 1217Q1023 1217 1166 1062T1309 659Q1309 416 1210 275T973 133Q914 133 875 179T844 315H838Q729 133 557 133Q475 133 417 197T358 373Q358 464 393 554T488 716T640 832T834 877Q928 877 1014 844L934 457Q909
331 924 270T991 209Q1048 208 1100 261T1187 413T1221 633Q1221 868 1103 1004T770 1141Q647 1141 537 1088T344 940T214 708T166 408Q166 160 302 13T659 -135Q829 -135 954 -63Z" />
<glyph unicode="A" glyph-name="A" horiz-adv-x="1097" d="M795 481H309L158 0H61L508 1380H600L1047 0H948L795 481ZM336 561H768L623 1001Q583 1128 555 1266H549Q526 1158 481 1004L336 561Z" />
<glyph unicode="B" glyph-name="B" horiz-adv-x="952" d="M156 2V1362Q281 1391 406 1391Q634 1391 741 1282Q825 1200 825 1055Q825 949 761 866T592 745V741Q643 729 691 703T781 634T848 528T874 385Q874 222 774 117Q655 -10 377 -10Q297 -10 156 2ZM250 1296V776H416Q553
776 640 853T727 1049Q727 1181 642 1246T399 1311Q298 1311 250 1296ZM250 698V80Q294 70 395 70Q475 70 542 87T662 141T746 239T776 383Q776 488 723 561T585 666T395 698H250Z" />
<glyph unicode="C" glyph-name="C" horiz-adv-x="1038" d="M950 121L979 43Q866 -18 659 -18Q567 -18 484 6T326 85T196 218T109 416T76 680Q76 1014 249 1206T698 1399Q877 1399 971 1348L940 1266Q833 1317 696 1317Q460 1317 317 1153T174 684Q174 384 311
225T686 66Q851 66 950 121Z" />
<glyph unicode="D" glyph-name="D" horiz-adv-x="1183" d="M156 2V1362Q301 1391 455 1391Q772 1391 930 1231Q1108 1055 1108 727Q1108 382 936 186Q853 91 719 41T414 -10Q254 -10 156 2ZM250 1292V80Q297 72 426 72Q709 72 859 234T1010 721Q1012 1000 873
1155T451 1311Q335 1311 250 1292Z" />
<glyph unicode="E" glyph-name="E" horiz-adv-x="870" d="M745 768V686H250V82H807V0H156V1380H776V1298H250V768H745Z" />
<glyph unicode="F" glyph-name="F" horiz-adv-x="856" d="M156 0V1380H776V1298H250V748H735V666H250V0H156Z" />
<glyph unicode="G" glyph-name="G" horiz-adv-x="1148" d="M1036 684V51Q874 -14 688 -14Q422 -14 256 152Q173 236 125 372T76 678Q76 1006 253 1200T725 1395Q896 1395 1004 1341L973 1262Q864 1313 719 1313Q474 1313 324 1151T174 692Q174 387 317 228T702
68Q864 68 942 106V606H653V684H1036Z" />
<glyph unicode="H" glyph-name="H" horiz-adv-x="1167" d="M156 1380H250V770H918V1380H1012V0H918V688H250V0H156V1380Z" />
<glyph unicode="I" glyph-name="I" horiz-adv-x="405" d="M156 1380H250V0H156V1380Z" />
<glyph unicode="J" glyph-name="J" horiz-adv-x="645" d="M410 422V1380H504V406Q504 -20 160 -20Q82 -20 16 4L35 84Q94 63 156 63Q220 63 265 79T344 134T394 245T410 422Z" />
<glyph unicode="K" glyph-name="K" horiz-adv-x="942" d="M156 0V1380H250V688H256Q278 719 316 769T367 836L801 1380H915L440 795L952 0H842L375 727L250 573V0H156Z" />
<glyph unicode="L" glyph-name="L" horiz-adv-x="839" d="M156 0V1380H250V80H803V0H156Z" />
<glyph unicode="M" glyph-name="M" horiz-adv-x="1468" d="M1255 0L1217 657Q1190 1097 1194 1264H1186Q1098 967 1020 748L756 0H696L449 725Q333 1063 285 1264H279Q274 1002 252 639L215 0H121L213 1380H322L588 610Q698 275 729 156H735Q774 317 877 608L1147
1380H1262L1350 0H1255Z" />
<glyph unicode="N" glyph-name="N" horiz-adv-x="1181" d="M246 0H154V1380H246L707 596Q868 310 946 133L950 135Q934 374 934 717V1380H1026V0H936L477 786Q308 1082 238 1249L231 1247Q246 1037 246 664V0Z" />
<glyph unicode="O" glyph-name="O" horiz-adv-x="1222" d="M604 -20H602Q492 -20 397 26T230 158T117 378T76 680Q76 852 118 990T235 1217T409 1353T623 1401Q853 1401 1000 1216T1147 700Q1147 521 1103 380T982 154T809 24T604 -20ZM608 61H610Q717 61 802
115T940 259T1021 462T1049 696Q1049 784 1034 870T984 1037T901 1181T777 1281T612 1319T448 1282T324 1184T240 1039T190 867T174 682Q174 568 201 460T281 261T418 116T608 61Z" />
<glyph unicode="P" glyph-name="P" horiz-adv-x="942" d="M156 0V1364Q293 1391 420 1391Q643 1391 754 1280Q856 1178 856 1008Q856 843 770 737Q710 660 610 620T391 580Q299 580 250 592V0H156ZM250 1296V676Q305 659 395 659Q565 659 662 746T760 999Q760
1148 669 1229T416 1311Q321 1311 250 1296Z" />
<glyph unicode="Q" glyph-name="Q" horiz-adv-x="1222" d="M1159 -88L1128 -176Q939 -126 678 -39Q627 -20 610 -20Q497 -18 401 28T232 159T118 377T76 678Q76 852 118 991T236 1219T410 1354T625 1401Q736 1401 831 1355T996 1221T1107 1000T1147 698Q1147 419
1046 247T766 14V8Q1009 -60 1159 -88ZM610 61H612Q697 61 769 96T892 192T979 334T1032 507T1049 696Q1049 784 1034 870T984 1037T901 1181T779 1281T618 1319Q527 1319 452 1282T326 1182T240 1037T190 864T174 680Q174 566 201 458T281 260T419 116T610 61Z"
/>
<glyph unicode="R" glyph-name="R" horiz-adv-x="950" d="M156 0V1362Q277 1391 420 1391Q650 1391 762 1282Q806 1238 831 1172T856 1030Q856 895 788 805T600 670V666Q756 619 807 360Q865 74 901 0H803Q776 52 719 340Q689 491 621 560T424 633H250V0H156ZM250
1296V709H426Q577 709 668 792T760 1014Q760 1164 671 1238T418 1313Q312 1313 250 1296Z" />
<glyph unicode="S" glyph-name="S" horiz-adv-x="874" d="M80 66L115 143Q234 63 381 63Q522 63 606 141T690 348Q690 460 630 535T438 672Q113 806 113 1053Q113 1204 219 1301T489 1399Q570 1399 635 1381T735 1337L698 1257Q667 1280 609 1298T481 1317Q410
1317 355 1295T269 1235T223 1156T207 1071Q207 958 268 891T471 758Q633 678 708 587T784 356Q784 194 675 88T375 -18Q294 -18 210 6T80 66Z" />
<glyph unicode="T" glyph-name="T" horiz-adv-x="868" d="M389 0V1300H-4V1380H877V1300H483V0H389Z" />
<glyph unicode="U" glyph-name="U" horiz-adv-x="1161" d="M156 1380H250V514Q250 394 275 305T345 163T447 86T573 61Q732 61 822 173T913 514V1380H1008V524Q1008 406 985 313T921 158T825 56T705 -2T569 -20Q501 -20 443 -4T330 50T239 147T179 297T156 504V1380Z" />
<glyph unicode="V" glyph-name="V" horiz-adv-x="976" d="M520 0H430L14 1380H113L332 659Q430 336 479 121H485Q523 299 641 659L877 1380H975L520 0Z" />
<glyph unicode="W" glyph-name="W" horiz-adv-x="1568" d="M465 0H377L37 1380H133L319 614Q394 300 424 131H430Q451 275 543 616L745 1380H836L1024 627Q1110 276 1128 131H1135Q1142 172 1150 216T1166 292T1186 376T1204 452T1226 536T1247 618L1450 1380H1546L1171
0H1083L887 799Q810 1121 791 1262H786Q763 1104 678 797L465 0Z" />
<glyph unicode="X" glyph-name="X" horiz-adv-x="1015" d="M958 0H852L659 350Q560 517 506 625H500Q443 505 350 348L168 0H59L455 700L74 1380H180L381 1014Q445 907 508 784H512Q549 862 639 1016L844 1380H952L561 711L958 0Z" />
<glyph unicode="Y" glyph-name="Y" horiz-adv-x="960" d="M530 0H436V604L37 1380H143L344 985Q460 743 487 680H492Q522 753 641 987L848 1380H952L530 604V0Z" />
<glyph unicode="Z" glyph-name="Z" horiz-adv-x="980" d="M63 0V61L795 1296V1300H123V1380H911V1319L180 86V80H918V0H63Z" />
<glyph unicode="[" glyph-name="bracketleft" horiz-adv-x="532" d="M506 -229H184V1405H506V1331H270V-156H506V-229Z" />
<glyph unicode="\" glyph-name="backslash" horiz-adv-x="671" d="M672 -82H578L0 1401H94L672 -82Z" />
<glyph unicode="]" glyph-name="bracketright" horiz-adv-x="532" d="M31 1405H352V-229H31V-156H264V1331H31V1405Z" />
<glyph unicode="^" glyph-name="asciicircum" horiz-adv-x="1220" d="M1071 401H979L612 1235H608L242 401H150L567 1331H653L1071 401Z" />
<glyph unicode="_" glyph-name="underscore" horiz-adv-x="1024" d="M0 -154H1024V-256H0V-154Z" />
<glyph unicode="`" glyph-name="grave" horiz-adv-x="614" d="M76 1403H211L389 1124H317L76 1403Z" />
<glyph unicode="a" glyph-name="a" horiz-adv-x="851" d="M709 637V229Q709 86 721 0H635L623 131H616Q578 67 507 24T342 -20Q217 -20 147 59T76 250Q76 422 215 514T614 606V635Q614 678 611 711T594 787T557 857T490 904T387 922Q261 922 172 856L145 926Q198
963 266 983T401 1004Q487 1004 549 975T645 893T694 777T709 637ZM614 313V526Q174 536 174 262Q174 161 225 110T352 59Q451 59 517 115T606 254Q614 281 614 313Z" />
<glyph unicode="b" glyph-name="b" horiz-adv-x="1017" d="M152 219V1444H246V817H250Q343 1004 565 1004Q728 1004 833 867T938 500Q938 371 904 269T813 106T688 12T547 -20Q338 -20 240 166H233L227 0H143Q152 133 152 219ZM246 590V369Q246 329 254 301Q283
183 360 121T535 59Q681 59 761 182T842 498Q842 612 809 706T706 862T539 924Q442 924 362 853T256 672Q246 630 246 590Z" />
<glyph unicode="c" glyph-name="c" horiz-adv-x="817" d="M733 113L758 39Q656 -18 508 -18Q315 -18 198 118T80 483Q80 710 207 857T539 1004Q609 1004 670 988T760 950L727 870Q642 920 528 920T333 858T214 699T176 485Q176 293 272 178T524 63Q626 63 733 113Z" />
<glyph unicode="d" glyph-name="d" horiz-adv-x="1005" d="M760 1444H854V221Q854 118 862 0H778L772 170H766Q729 89 650 35T459 -20Q296 -20 188 115T80 477Q80 720 194 862T475 1004Q574 1004 647 960T756 844H760V1444ZM760 383V600Q760 648 752 684Q733 786
658 855T481 924Q340 924 258 799T176 485Q176 370 207 276T307 121T475 59Q568 59 644 121T752 305Q760 338 760 383Z" />
<glyph unicode="e" glyph-name="e" horiz-adv-x="897" d="M817 510H174Q174 411 192 333T242 205T317 123T408 77T510 63Q652 63 748 115L770 41Q673 -18 498 -18Q303 -18 192 118T80 477Q80 717 190 860T477 1004Q545 1004 601 983T693 925T755 844T794 749T813
655T819 569Q819 528 817 510ZM178 586H721Q723 651 709 710T666 817T585 895T465 924Q411 924 366 904T289 850T233 771T196 680T178 586Z" />
<glyph unicode="f" glyph-name="f" horiz-adv-x="493" d="M258 0H164V905H29V983H164V1042Q164 1274 262 1380Q343 1464 467 1464Q549 1464 600 1434L571 1358Q523 1382 459 1382Q398 1382 357 1355T295 1278T266 1173T258 1044V983H498V905H258V0Z" />
<glyph unicode="g" glyph-name="g" horiz-adv-x="1005" d="M854 715V141Q854 -45 825 -147T735 -309Q679 -366 599 -394T434 -422Q356 -422 280 -403T156 -348L188 -270Q301 -342 449 -342Q760 -342 760 39V172H756Q720 97 643 49T459 0Q295 0 188 136T80 485Q80
613 115 715T208 879T336 972T479 1004Q677 1004 766 831H770L774 983H862Q854 847 854 715ZM760 393V621Q760 675 750 709Q720 801 653 862T481 924Q344 924 260 807T176 496Q176 309 257 195T481 80Q568 80 639 132T745 291Q760 339 760 393Z" />
<glyph unicode="h" glyph-name="h" horiz-adv-x="997" d="M152 0V1444H246V829H250Q294 911 369 954Q448 1004 547 1004Q580 1004 614 997T693 964T770 900T827 789T850 623V0H756V604Q756 669 744 724T705 824T631 896T520 922Q428 922 356 862T256 707Q246 673
246 616V0H152Z" />
<glyph unicode="i" glyph-name="i" horiz-adv-x="399" d="M246 0H152V983H246V0ZM199 1174H197Q166 1174 146 1197T125 1255T147 1313T201 1337Q234 1337 254 1314T274 1255T254 1197T199 1174Z" />
<glyph unicode="j" glyph-name="j" horiz-adv-x="409" d="M-70 -422L-84 -344Q43 -330 100 -260Q136 -211 151 -132T166 123V983H260V66Q260 -79 240 -166T164 -317Q119 -366 51 -393T-70 -422ZM213 1174H211Q179 1174 159 1197T139 1255T161 1313T217 1337Q249
1337 269 1313T289 1255Q289 1220 269 1197T213 1174Z" />
<glyph unicode="k" glyph-name="k" horiz-adv-x="800" d="M246 1444V510H250Q303 579 334 614L647 983H760L399 573L807 0H694L336 512L246 410V0H152V1444H246Z" />
<glyph unicode="l" glyph-name="l" horiz-adv-x="407" d="M152 0V1444H246V0H152Z" />
<glyph unicode="m" glyph-name="m" horiz-adv-x="1531" d="M152 0V750Q152 812 143 983H231L238 823H242Q333 1004 528 1004Q617 1004 686 951T784 805H788Q829 886 887 934Q976 1004 1094 1004Q1128 1004 1162 996T1238 961T1310 893T1363 777T1384 606V0H1290V590Q1290
745 1235 833T1061 922Q981 922 918 868T829 731Q815 677 815 633V0H721V629Q721 759 666 840T502 922Q417 922 350 860T258 705Q246 664 246 612V0H152Z" />
<glyph unicode="n" glyph-name="n" horiz-adv-x="997" d="M152 0V750Q152 812 143 983H231L238 821H242Q279 902 359 953T543 1004Q577 1004 613 996T693 963T770 897T827 784T850 616V0H756V600Q756 666 744 721T706 822T631 895T516 922Q426 922 354 861T256
702Q246 662 246 614V0H152Z" />
<glyph unicode="o" glyph-name="o" horiz-adv-x="978" d="M483 -20H481Q309 -20 195 115T80 485Q80 610 114 710T207 874T339 970T496 1004Q673 1004 786 868T899 498Q899 367 862 264T764 101T632 11T483 -20ZM485 59H487Q580 59 653 121T765 283T803 496Q803
566 786 636T735 773T636 882T489 924Q424 924 371 898T282 828T222 727T187 610T176 489Q176 378 213 281T321 121T485 59Z" />
<glyph unicode="p" glyph-name="p" horiz-adv-x="1017" d="M152 -401V672Q152 798 143 983H233L240 813H244Q345 1004 561 1004Q728 1004 833 868T938 504Q938 374 906 272T817 107T689 12T537 -20Q442 -20 367 23T250 143H246V-401H152ZM246 588V379Q246 334
254 301Q282 184 359 122T532 59Q681 59 761 182T842 500Q842 613 809 707T706 863T539 924Q442 924 362 852T256 670Q246 602 246 588Z" />
<glyph unicode="q" glyph-name="q" horiz-adv-x="1003" d="M760 -401V152H754Q719 78 643 29T459 -20Q297 -20 189 115T80 477Q80 611 116 715T211 881T341 973T485 1004Q585 1004 657 957T766 829H770L774 983H862Q854 847 854 715V-401H760ZM760 381V600Q760
648 752 684Q731 785 658 854T483 924Q340 924 258 801T176 485Q176 400 193 326T246 191T340 95T477 59Q566 59 638 114T745 283Q760 330 760 381Z" />
<glyph unicode="r" glyph-name="r" horiz-adv-x="557" d="M152 0V709Q152 789 143 983H231L236 797H240Q271 886 340 945T500 1004Q506 1004 516 1003T532 1001V907Q522 909 496 909Q399 909 334 834T252 643Q246 600 246 553V0H152Z" />
<glyph unicode="s" glyph-name="s" horiz-adv-x="698" d="M76 47L113 127Q206 63 311 63Q412 63 467 114T522 248Q522 324 480 374T338 471Q223 525 163 590T102 743Q102 853 181 928T387 1004Q501 1004 588 944L549 866Q471 922 375 922Q291 922 244 875T197
758Q197 690 237 648T377 557Q493 504 554 437T616 264Q616 134 530 58T305 -18Q174 -18 76 47Z" />
<glyph unicode="t" glyph-name="t" horiz-adv-x="577" d="M186 1159L281 1198V983H532V905H281V258Q281 63 414 63Q474 63 508 76L520 2Q473 -18 399 -18Q291 -18 242 47Q186 114 186 281V905H33V983H186V1159Z" />
<glyph unicode="u" glyph-name="u" horiz-adv-x="985" d="M834 983V242Q834 144 842 0H754L748 152H743Q706 84 629 32T446 -20Q402 -20 363 -10T282 30T212 103T164 222T145 391V983H240V410Q240 246 292 154T469 61Q563 61 630 119T725 252Q739 306 739 356V983H834Z" />
<glyph unicode="v" glyph-name="v" horiz-adv-x="841" d="M33 983H131L340 369Q381 257 420 119H426Q446 197 508 369L717 983H815L459 0H377L33 983Z" />
<glyph unicode="w" glyph-name="w" horiz-adv-x="1363" d="M43 983H139L293 436Q340 268 371 125H377Q400 235 465 436L641 983H727L895 444Q949 274 985 125H991Q1013 240 1073 438L1231 983H1327L1024 0H944L772 551Q721 710 684 872H680Q646 726 588 547L410
0H328L43 983Z" />
<glyph unicode="x" glyph-name="x" horiz-adv-x="802" d="M43 983H147L299 748Q350 668 401 575H406Q420 603 437 632T476 695T508 748L657 983H764L451 504L770 0H664L508 248Q475 297 397 432H393Q360 366 285 248L131 0H25L350 502L43 983Z" />
<glyph unicode="y" glyph-name="y" horiz-adv-x="825" d="M27 983H127L352 354Q384 265 418 137H422L489 358L700 983H801L553 303Q462 40 397 -101T244 -332Q160 -413 80 -446L43 -367Q139 -322 207 -246Q298 -143 350 -14Q360 16 360 33Q360 49 352 74L27 983Z" />
<glyph unicode="z" glyph-name="z" horiz-adv-x="755" d="M31 0V57L508 762L608 901V905H74V983H721V922L244 219L150 82V78H721V0H31Z" />
<glyph unicode="{" glyph-name="braceleft" horiz-adv-x="532" d="M61 555V625Q156 624 190 669T225 786Q225 827 211 967Q193 1073 193 1147Q193 1278 267 1341T461 1405H483V1331H449Q359 1327 320 1282T281 1145Q281 1087 297 977T313 811Q316 628 182 594V590Q316
551 313 367Q313 309 297 203Q281 87 281 33Q281 -60 321 -106T449 -156H483V-229H461Q341 -229 267 -164T193 41Q193 101 209 219Q225 333 225 393Q225 557 61 555Z" />
<glyph unicode="|" glyph-name="bar" horiz-adv-x="419" d="M166 1536H254V-512H166V1536Z" />
<glyph unicode="}" glyph-name="braceright" horiz-adv-x="532" d="M471 625V555Q307 557 307 393Q307 317 326 219Q342 101 342 41Q342 -99 268 -164T74 -229H51V-156H86Q173 -152 213 -106T254 33Q254 99 236 203Q219 303 219 367Q216 551 350 590V594Q216 628
219 811Q219 882 238 977Q254 1087 254 1145Q254 1236 215 1281T86 1331H51V1405H74Q193 1405 267 1342T342 1147Q342 1073 324 967Q307 854 307 786Q307 714 342 669T471 625Z" />
<glyph unicode="~" glyph-name="asciitilde" horiz-adv-x="1220" d="M203 463H127Q120 574 180 644T338 715Q390 715 450 696T618 629Q695 596 727 584T810 557T901 543Q961 543 991 589T1020 711H1096Q1103 585 1044 522T891 459Q837 459 774 477T602 543Q593
547 556 564T506 586T463 602T416 618T375 627T330 631Q268 631 235 587T203 463Z" />
</font>
</defs>
</svg>
